<?xml version="1.0" encoding="iso-8859-1"?>
<!-- Uploaded to: SVG Repo, www.svgrepo.com, Generator: SVG Repo Mixer Tools -->
<svg height="800px" width="800px" version="1.1" id="Layer_1" xmlns="http://www.w3.org/2000/svg" xmlns:xlink="http://www.w3.org/1999/xlink" 
	 viewBox="0 0 512 512" xml:space="preserve">
<path style="fill:#FFEAB2;" d="M256,251.386c-62.622,0-113.569-50.941-113.569-113.556c0-10.114,1.331-20.126,3.954-29.757
	c2.185-8.023,9.472-13.589,17.787-13.589h183.656c8.314,0,15.599,5.565,17.786,13.586c2.625,9.629,3.956,19.641,3.956,29.759
	C369.569,200.445,318.622,251.386,256,251.386z"/>
<path style="fill:#FFE08C;" d="M365.613,108.072c-2.185-8.021-9.472-13.586-17.786-13.586h-91.832v156.902c0.001,0,0.002,0,0.004,0
	c62.622,0,113.569-50.941,113.569-113.556C369.569,127.713,368.238,117.699,365.613,108.072z"/>
<path style="fill:#C7E5F4;" d="M351.134,131.353H160.866c-12.054,0-20.878-11.404-17.841-23.076l24.579-94.47
	c2.699-10.376,13.677-16.284,23.832-12.792L256,23.202l64.564-22.188c10.139-3.485,21.128,2.4,23.832,12.792l24.579,94.47
	C372.011,119.941,363.195,131.353,351.134,131.353z"/>
<g>
	<path style="fill:#60BFE1;" d="M368.974,108.278C342.453,6.345,344.746,7.292,335.272,2.206
		c-9.456-5.076-10.366-2.684-79.273,20.997l-0.004-0.001v108.153h95.138C363.187,131.353,372.013,119.95,368.974,108.278z"/>
	<path style="fill:#60BFE1;" d="M406.731,512H105.269c-10.181,0-18.434-8.254-18.434-18.434v-58.467
		c0-93.278,75.887-169.166,169.166-169.166s169.166,75.887,169.166,169.166v58.467C425.166,503.746,416.912,512,406.731,512z"/>
</g>
<g>
	<path style="fill:#C7E5F4;" d="M256,346.137c10.181,0,18.434-8.254,18.434-18.434v-60.76c-6.056-0.66-12.205-1.008-18.434-1.008
		c-6.23,0-12.378,0.349-18.434,1.008v60.76C237.566,337.883,245.818,346.137,256,346.137z"/>
	<path style="fill:#C7E5F4;" d="M274.435,512V383.076c0-10.181-8.254-18.434-18.434-18.434c-10.181,0-18.434,8.254-18.434,18.434
		V512H274.435z"/>
</g>
<path style="fill:#2E9ADA;" d="M256,265.933c-0.001,0-0.002,0-0.004,0V512h150.735c10.181,0,18.434-8.254,18.434-18.434v-58.467
	C425.166,341.821,349.278,265.933,256,265.933z"/>
<g>
	<path style="fill:#60BFE1;" d="M256,265.935c-0.001,0-0.002,0-0.004,0v80.202c0.001,0,0.002,0,0.004,0
		c10.181,0,18.434-8.254,18.434-18.434v-60.76C268.377,266.282,262.228,265.935,256,265.935z"/>
	<path style="fill:#60BFE1;" d="M274.435,383.076c0-10.181-8.254-18.434-18.434-18.434c-0.001,0-0.002,0-0.004,0v147.358h18.438
		V383.076z"/>
	<path style="fill:#60BFE1;" d="M384.92,131.356h-257.84c-10.181,0-18.434-8.254-18.434-18.434s8.254-18.434,18.434-18.434h257.84
		c10.181,0,18.434,8.254,18.434,18.434S395.1,131.356,384.92,131.356z"/>
</g>
<path style="fill:#2E9ADA;" d="M384.92,94.487H255.995v36.869H384.92c10.181,0,18.434-8.254,18.434-18.434
	S395.1,94.487,384.92,94.487z"/>
</svg>